<svg xmlns="http://www.w3.org/2000/svg" viewBox="0 0 400 300">
  <rect width="400" height="300" fill="#f0eef5"/>
  <ellipse cx="200" cy="250" rx="130" ry="12" fill="#000" opacity="0.08"/>
  <!-- small table/stand -->
  <rect x="150" y="220" width="100" height="14" rx="3" fill="#8a5a36"/>
  <rect x="160" y="234" width="8" height="20" fill="#6e4527"/>
  <rect x="232" y="234" width="8" height="20" fill="#6e4527"/>
  <!-- vase -->
  <path d="M185 160 Q180 200 200 220 Q220 200 215 160 Z" fill="#c97b3d"/>
  <rect x="185" y="150" width="30" height="14" rx="4" fill="#a85f27"/>
  <!-- plant leaves -->
  <path d="M200 150 C 170 120, 160 80, 190 60 C 185 100, 195 130, 200 150 Z" fill="#4b7a4f"/>
  <path d="M200 150 C 230 120, 240 80, 210 60 C 215 100, 205 130, 200 150 Z" fill="#5c8f5f"/>
  <path d="M200 150 C 200 110, 200 70, 200 50 C 205 90, 202 125, 200 150 Z" fill="#6ea873"/>
  <!-- small decor frame -->
  <rect x="270" y="150" width="60" height="70" rx="4" fill="#e8d7b8" stroke="#c9b48d" stroke-width="3"/>
  <circle cx="300" cy="185" r="16" fill="#d9a441"/>
</svg>
